# xmcd
#
# Track frame offsets:
#	150
#	18086
#	36799
#	53635
#	71482
#	87090
#	101857
#	123689
#	144545
#	165577
#	182932
#	203330
#	224050
#	241412
#	257025
#	272322
#	300920
#	319310
#
# Disc length: 4551 seconds
#
# Revision: 6
# Processed by: cddbd v1.5.2PL0 Copyright (c) Steve Scherf et al.
# Submitted via: EasyCDDAExtractor 15.3.0.1
#
DISCID=fa11c512
DTITLE=Gloria Estefan - The Essential Gloria Estefan - CD 2
DYEAR=2006
DGENRE=Pop
TTITLE0=Can't Stay Away From You
TTITLE1=Don't Wanna Lose You
TTITLE2=Anything For You
TTITLE3=Falling In Love (Uh-Oh)
TTITLE4=Words Get In The Way
TTITLE5=Cuts Both Ways
TTITLE6=Here We Are
TTITLE7=If We Were Lovers
TTITLE8=Nayib's Song (I Am Here For You)
TTITLE9=Reach
TTITLE10=Music Of My Heart (Nsync and Gloria Estefan)
TTITLE11=I See Your Smile
TTITLE12=I'm Not Giving You Up (Single Edit)
TTITLE13=Wrapped
TTITLE14=Hold Me, Thrill Me, Kiss Me
TTITLE15=Along Came You (A Song For Emily)
TTITLE16=Coming Out Of The Dark
TTITLE17=Always Tomorrow
EXTD=YEAR: 2006
EXTT0=
EXTT1=
EXTT2=
EXTT3=
EXTT4=
EXTT5=
EXTT6=
EXTT7=
EXTT8=
EXTT9=
EXTT10=
EXTT11=
EXTT12=
EXTT13=
EXTT14=
EXTT15=
EXTT16=
EXTT17=
PLAYORDER=
